<?xml version="1.0" encoding="UTF-8" standalone="no"?>
<!DOCTYPE svg PUBLIC "-//W3C//DTD SVG 1.1//EN" "http://www.w3.org/Graphics/SVG/1.1/DTD/svg11.dtd">
<svg xmlns="http://www.w3.org/2000/svg" version="1.1" viewBox="0.00 0.00 256.00 256.00">
<g stroke-width="2.00" fill="none" stroke-linecap="butt">
<path stroke="#19041d" vector-effect="non-scaling-stroke" d="
  M 49.25 213.14
  Q 50.11 210.73 51.47 210.14
  Q 51.65 210.07 51.74 210.24
  Q 51.80 210.36 51.86 210.48
  Q 51.88 210.53 51.89 210.48
  L 52.23 207.03"
/>
<path stroke="#918095" vector-effect="non-scaling-stroke" d="
  M 52.23 207.03
  L 52.30 213.05
  Q 52.30 213.50 52.76 213.50
  L 207.00 213.50
  Q 207.51 213.50 207.51 213.00
  L 207.50 109.75
  Q 207.50 109.11 207.00 108.73
  L 130.55 50.71
  A 0.71 0.70 -44.6 0 0 129.70 50.71
  L 52.68 109.17
  A 1.05 1.03 72.1 0 0 52.26 110.01
  L 52.23 124.97"
/>
<path stroke="#19041d" vector-effect="non-scaling-stroke" d="
  M 52.23 124.97
  L 50.30 131.52
  Q 50.19 131.90 49.87 131.69
  L 49.25 131.29"
/>
<path stroke="#878387" vector-effect="non-scaling-stroke" d="
  M 52.23 207.03
  L 52.23 124.97"
/>
<path stroke="#8b4551" vector-effect="non-scaling-stroke" d="
  M 129.87 46.51
  A 0.46 0.46 0.0 0 1 130.43 46.51
  L 220.10 114.57
  A 0.46 0.46 0.0 0 0 220.75 114.48
  L 228.58 104.14
  A 0.46 0.46 0.0 0 0 228.49 103.49
  L 130.43 29.06
  A 0.46 0.46 0.0 0 0 129.87 29.06
  L 27.52 106.76
  A 0.46 0.46 0.0 0 0 27.43 107.41
  L 35.27 117.71
  A 0.46 0.46 0.0 0 0 35.92 117.80
  L 129.87 46.51"
/>
<path stroke="#916955" vector-effect="non-scaling-stroke" d="
  M 65.01 73.64
  A 0.36 0.36 0.0 0 0 65.59 73.92
  L 77.86 64.64
  A 0.36 0.36 0.0 0 0 78.00 64.35
  L 78.00 45.61
  A 0.36 0.36 0.0 0 0 77.64 45.25
  L 65.36 45.25
  A 0.36 0.36 0.0 0 0 65.00 45.61
  L 65.01 73.64"
/>
<path stroke="#4e6373" vector-effect="non-scaling-stroke" d="
  M 222.99 216.99
  A 0.27 0.27 0.0 0 0 222.72 216.72
  L 37.02 216.72
  A 0.27 0.27 0.0 0 0 36.75 216.99
  L 36.75 227.23
  A 0.27 0.27 0.0 0 0 37.02 227.50
  L 222.72 227.50
  A 0.27 0.27 0.0 0 0 222.99 227.23
  L 222.99 216.99"
/>
<path stroke="#918095" vector-effect="non-scaling-stroke" d="
  M 136.50 189.91
  Q 147.01 187.82 153.80 180.81
  C 162.86 171.46 164.06 155.86 156.59 145.11
  C 153.83 141.14 147.99 136.19 143.69 134.28
  Q 134.84 130.32 126.13 126.07
  Q 121.24 123.68 119.05 120.94
  C 113.40 113.88 118.15 103.47 126.77 101.97
  Q 140.29 99.62 152.57 107.37
  Q 153.12 107.72 153.36 107.11
  L 158.11 94.67
  A 0.75 0.75 0.0 0 0 157.79 93.76
  Q 148.39 88.28 137.49 87.76
  A 0.52 0.51 1.8 0 1 137.00 87.25
  L 137.00 72.75
  A 0.76 0.75 89.6 0 0 136.25 72.00
  L 124.63 72.00
  Q 124.00 72.00 124.00 72.63
  L 124.01 87.98
  Q 124.01 88.44 123.56 88.57
  C 111.15 92.13 102.71 97.90 100.29 110.69
  C 96.62 130.12 112.83 139.77 128.54 145.54
  C 136.42 148.43 144.48 153.65 144.51 163.00
  C 144.54 170.95 136.41 176.40 128.99 176.76
  Q 115.38 177.40 103.53 169.44
  A 0.58 0.58 0.0 0 0 102.67 169.73
  L 98.17 182.29
  A 0.77 0.77 0.0 0 0 98.48 183.20
  Q 109.37 190.12 122.34 190.60
  A 0.68 0.68 0.0 0 1 123.00 191.28
  L 123.00 206.25
  Q 123.01 207.00 123.75 207.00
  L 135.24 207.00
  Q 135.98 207.00 135.98 206.26
  L 136.00 190.52
  Q 136.00 190.01 136.50 189.91"
/>
<path stroke="#916955" vector-effect="non-scaling-stroke" d="
  M 126.01 188.25
  L 126.00 203.37
  A 0.62 0.62 0.0 0 0 126.62 203.99
  L 132.50 204.00
  Q 133.01 204.00 133.01 203.50
  L 132.99 187.98
  Q 132.99 187.41 133.56 187.33
  C 145.88 185.62 156.02 177.89 158.15 165.18
  C 160.66 150.25 150.18 139.88 137.29 134.64
  C 129.52 131.49 119.05 127.70 115.33 120.74
  C 111.95 114.44 113.62 106.41 119.32 102.08
  C 127.72 95.72 142.40 98.48 151.12 102.91
  A 0.50 0.50 0.0 0 0 151.82 102.64
  L 154.27 96.02
  Q 154.48 95.45 153.94 95.18
  Q 144.79 90.59 134.50 90.74
  A 0.49 0.49 0.0 0 1 134.00 90.25
  L 134.00 75.76
  Q 134.00 75.01 133.25 75.01
  L 127.63 75.00
  Q 127.00 75.00 127.00 75.62
  L 127.00 90.70
  Q 127.00 91.15 126.56 91.20
  C 117.95 92.32 109.76 96.79 105.56 104.41
  C 101.44 111.89 101.89 122.03 107.17 128.85
  C 112.04 135.12 122.28 139.81 130.07 142.84
  C 140.11 146.75 149.00 153.43 147.27 165.50
  Q 146.09 173.75 137.41 177.64
  C 127.37 182.13 114.32 179.21 104.96 174.02
  A 0.45 0.45 0.0 0 0 104.32 174.26
  L 101.87 181.14
  A 0.65 0.64 23.6 0 0 102.18 181.93
  Q 113.07 187.75 125.50 187.74
  Q 126.01 187.74 126.01 188.25"
/>
</g>
<path fill="#23002a" d="
  M 49.25 213.14
  Q 50.11 210.73 51.47 210.14
  Q 51.65 210.07 51.74 210.24
  Q 51.80 210.36 51.86 210.48
  Q 51.88 210.53 51.89 210.48
  L 52.23 207.03
  L 52.30 213.05
  Q 52.30 213.50 52.76 213.50
  L 207.00 213.50
  Q 207.51 213.50 207.51 213.00
  L 207.50 109.75
  Q 207.50 109.11 207.00 108.73
  L 130.55 50.71
  A 0.71 0.70 -44.6 0 0 129.70 50.71
  L 52.68 109.17
  A 1.05 1.03 72.1 0 0 52.26 110.01
  L 52.23 124.97
  L 50.30 131.52
  Q 50.19 131.90 49.87 131.69
  L 49.25 131.29
  L 49.22 112.21
  Q 49.22 111.59 48.73 111.96
  L 35.48 122.02
  A 0.66 0.66 0.0 0 1 34.56 121.90
  L 23.20 106.97
  Q 22.79 106.42 23.33 106.01
  L 61.67 76.92
  A 0.85 0.83 71.7 0 0 62.00 76.25
  L 62.00 42.75
  Q 62.00 42.25 62.50 42.25
  L 80.50 42.25
  Q 81.00 42.25 81.00 42.75
  L 81.00 61.42
  Q 81.00 62.25 81.67 61.75
  L 129.61 25.35
  Q 130.14 24.96 130.66 25.35
  L 232.74 102.82
  A 0.58 0.58 0.0 0 1 232.85 103.63
  L 221.42 118.72
  A 0.59 0.58 -52.6 0 1 220.60 118.84
  L 210.95 111.52
  Q 210.50 111.17 210.50 111.74
  L 210.50 213.00
  Q 210.50 213.50 211.00 213.50
  L 225.50 213.50
  Q 226.00 213.50 226.00 214.00
  L 226.00 230.00
  Q 226.00 230.50 225.50 230.50
  L 34.25 230.50
  Q 33.75 230.50 33.75 230.00
  L 33.75 214.02
  Q 33.75 213.48 34.29 213.47
  L 49.25 213.14
  Z
  M 129.87 46.51
  A 0.46 0.46 0.0 0 1 130.43 46.51
  L 220.10 114.57
  A 0.46 0.46 0.0 0 0 220.75 114.48
  L 228.58 104.14
  A 0.46 0.46 0.0 0 0 228.49 103.49
  L 130.43 29.06
  A 0.46 0.46 0.0 0 0 129.87 29.06
  L 27.52 106.76
  A 0.46 0.46 0.0 0 0 27.43 107.41
  L 35.27 117.71
  A 0.46 0.46 0.0 0 0 35.92 117.80
  L 129.87 46.51
  Z
  M 65.01 73.64
  A 0.36 0.36 0.0 0 0 65.59 73.92
  L 77.86 64.64
  A 0.36 0.36 0.0 0 0 78.00 64.35
  L 78.00 45.61
  A 0.36 0.36 0.0 0 0 77.64 45.25
  L 65.36 45.25
  A 0.36 0.36 0.0 0 0 65.00 45.61
  L 65.01 73.64
  Z
  M 222.99 216.99
  A 0.27 0.27 0.0 0 0 222.72 216.72
  L 37.02 216.72
  A 0.27 0.27 0.0 0 0 36.75 216.99
  L 36.75 227.23
  A 0.27 0.27 0.0 0 0 37.02 227.50
  L 222.72 227.50
  A 0.27 0.27 0.0 0 0 222.99 227.23
  L 222.99 216.99
  Z"
/>
<path fill="#f38977" d="
  M 129.87 46.51
  L 35.92 117.80
  A 0.46 0.46 0.0 0 1 35.27 117.71
  L 27.43 107.41
  A 0.46 0.46 0.0 0 1 27.52 106.76
  L 129.87 29.06
  A 0.46 0.46 0.0 0 1 130.43 29.06
  L 228.49 103.49
  A 0.46 0.46 0.0 0 1 228.58 104.14
  L 220.75 114.48
  A 0.46 0.46 0.0 0 1 220.10 114.57
  L 130.43 46.51
  A 0.46 0.46 0.0 0 0 129.87 46.51
  Z"
/>
<path fill="#ffd27f" d="
  M 65.01 73.64
  L 65.00 45.61
  A 0.36 0.36 0.0 0 1 65.36 45.25
  L 77.64 45.25
  A 0.36 0.36 0.0 0 1 78.00 45.61
  L 78.00 64.35
  A 0.36 0.36 0.0 0 1 77.86 64.64
  L 65.59 73.92
  A 0.36 0.36 0.0 0 1 65.01 73.64
  Z"
/>
<path fill="#ffffff" d="
  M 52.23 207.03
  L 52.23 124.97
  L 52.26 110.01
  A 1.05 1.03 72.1 0 1 52.68 109.17
  L 129.70 50.71
  A 0.71 0.70 -44.6 0 1 130.55 50.71
  L 207.00 108.73
  Q 207.50 109.11 207.50 109.75
  L 207.51 213.00
  Q 207.51 213.50 207.00 213.50
  L 52.76 213.50
  Q 52.30 213.50 52.30 213.05
  L 52.23 207.03
  Z
  M 136.50 189.91
  Q 147.01 187.82 153.80 180.81
  C 162.86 171.46 164.06 155.86 156.59 145.11
  C 153.83 141.14 147.99 136.19 143.69 134.28
  Q 134.84 130.32 126.13 126.07
  Q 121.24 123.68 119.05 120.94
  C 113.40 113.88 118.15 103.47 126.77 101.97
  Q 140.29 99.62 152.57 107.37
  Q 153.12 107.72 153.36 107.11
  L 158.11 94.67
  A 0.75 0.75 0.0 0 0 157.79 93.76
  Q 148.39 88.28 137.49 87.76
  A 0.52 0.51 1.8 0 1 137.00 87.25
  L 137.00 72.75
  A 0.76 0.75 89.6 0 0 136.25 72.00
  L 124.63 72.00
  Q 124.00 72.00 124.00 72.63
  L 124.01 87.98
  Q 124.01 88.44 123.56 88.57
  C 111.15 92.13 102.71 97.90 100.29 110.69
  C 96.62 130.12 112.83 139.77 128.54 145.54
  C 136.42 148.43 144.48 153.65 144.51 163.00
  C 144.54 170.95 136.41 176.40 128.99 176.76
  Q 115.38 177.40 103.53 169.44
  A 0.58 0.58 0.0 0 0 102.67 169.73
  L 98.17 182.29
  A 0.77 0.77 0.0 0 0 98.48 183.20
  Q 109.37 190.12 122.34 190.60
  A 0.68 0.68 0.0 0 1 123.00 191.28
  L 123.00 206.25
  Q 123.01 207.00 123.75 207.00
  L 135.24 207.00
  Q 135.98 207.00 135.98 206.26
  L 136.00 190.52
  Q 136.00 190.01 136.50 189.91
  Z"
/>
<path fill="#23002a" d="
  M 136.00 190.52
  L 135.98 206.26
  Q 135.98 207.00 135.24 207.00
  L 123.75 207.00
  Q 123.01 207.00 123.00 206.25
  L 123.00 191.28
  A 0.68 0.68 0.0 0 0 122.34 190.60
  Q 109.37 190.12 98.48 183.20
  A 0.77 0.77 0.0 0 1 98.17 182.29
  L 102.67 169.73
  A 0.58 0.58 0.0 0 1 103.53 169.44
  Q 115.38 177.40 128.99 176.76
  C 136.41 176.40 144.54 170.95 144.51 163.00
  C 144.48 153.65 136.42 148.43 128.54 145.54
  C 112.83 139.77 96.62 130.12 100.29 110.69
  C 102.71 97.90 111.15 92.13 123.56 88.57
  Q 124.01 88.44 124.01 87.98
  L 124.00 72.63
  Q 124.00 72.00 124.63 72.00
  L 136.25 72.00
  A 0.76 0.75 89.6 0 1 137.00 72.75
  L 137.00 87.25
  A 0.52 0.51 1.8 0 0 137.49 87.76
  Q 148.39 88.28 157.79 93.76
  A 0.75 0.75 0.0 0 1 158.11 94.67
  L 153.36 107.11
  Q 153.12 107.72 152.57 107.37
  Q 140.29 99.62 126.77 101.97
  C 118.15 103.47 113.40 113.88 119.05 120.94
  Q 121.24 123.68 126.13 126.07
  Q 134.84 130.32 143.69 134.28
  C 147.99 136.19 153.83 141.14 156.59 145.11
  C 164.06 155.86 162.86 171.46 153.80 180.81
  Q 147.01 187.82 136.50 189.91
  Q 136.00 190.01 136.00 190.52
  Z
  M 126.01 188.25
  L 126.00 203.37
  A 0.62 0.62 0.0 0 0 126.62 203.99
  L 132.50 204.00
  Q 133.01 204.00 133.01 203.50
  L 132.99 187.98
  Q 132.99 187.41 133.56 187.33
  C 145.88 185.62 156.02 177.89 158.15 165.18
  C 160.66 150.25 150.18 139.88 137.29 134.64
  C 129.52 131.49 119.05 127.70 115.33 120.74
  C 111.95 114.44 113.62 106.41 119.32 102.08
  C 127.72 95.72 142.40 98.48 151.12 102.91
  A 0.50 0.50 0.0 0 0 151.82 102.64
  L 154.27 96.02
  Q 154.48 95.45 153.94 95.18
  Q 144.79 90.59 134.50 90.74
  A 0.49 0.49 0.0 0 1 134.00 90.25
  L 134.00 75.76
  Q 134.00 75.01 133.25 75.01
  L 127.63 75.00
  Q 127.00 75.00 127.00 75.62
  L 127.00 90.70
  Q 127.00 91.15 126.56 91.20
  C 117.95 92.32 109.76 96.79 105.56 104.41
  C 101.44 111.89 101.89 122.03 107.17 128.85
  C 112.04 135.12 122.28 139.81 130.07 142.84
  C 140.11 146.75 149.00 153.43 147.27 165.50
  Q 146.09 173.75 137.41 177.64
  C 127.37 182.13 114.32 179.21 104.96 174.02
  A 0.45 0.45 0.0 0 0 104.32 174.26
  L 101.87 181.14
  A 0.65 0.64 23.6 0 0 102.18 181.93
  Q 113.07 187.75 125.50 187.74
  Q 126.01 187.74 126.01 188.25
  Z"
/>
<path fill="#ffd27f" d="
  M 125.50 187.74
  Q 113.07 187.75 102.18 181.93
  A 0.65 0.64 23.6 0 1 101.87 181.14
  L 104.32 174.26
  A 0.45 0.45 0.0 0 1 104.96 174.02
  C 114.32 179.21 127.37 182.13 137.41 177.64
  Q 146.09 173.75 147.27 165.50
  C 149.00 153.43 140.11 146.75 130.07 142.84
  C 122.28 139.81 112.04 135.12 107.17 128.85
  C 101.89 122.03 101.44 111.89 105.56 104.41
  C 109.76 96.79 117.95 92.32 126.56 91.20
  Q 127.00 91.15 127.00 90.70
  L 127.00 75.62
  Q 127.00 75.00 127.63 75.00
  L 133.25 75.01
  Q 134.00 75.01 134.00 75.76
  L 134.00 90.25
  A 0.49 0.49 0.0 0 0 134.50 90.74
  Q 144.79 90.59 153.94 95.18
  Q 154.48 95.45 154.27 96.02
  L 151.82 102.64
  A 0.50 0.50 0.0 0 1 151.12 102.91
  C 142.40 98.48 127.72 95.72 119.32 102.08
  C 113.62 106.41 111.95 114.44 115.33 120.74
  C 119.05 127.70 129.52 131.49 137.29 134.64
  C 150.18 139.88 160.66 150.25 158.15 165.18
  C 156.02 177.89 145.88 185.62 133.56 187.33
  Q 132.99 187.41 132.99 187.98
  L 133.01 203.50
  Q 133.01 204.00 132.50 204.00
  L 126.62 203.99
  A 0.62 0.62 0.0 0 1 126.00 203.37
  L 126.01 188.25
  Q 126.01 187.74 125.50 187.74
  Z"
/>
<path fill="#0f070f" d="
  M 52.23 124.97
  L 52.23 207.03
  L 51.89 210.48
  Q 51.88 210.53 51.86 210.48
  Q 51.80 210.36 51.74 210.24
  Q 51.65 210.07 51.47 210.14
  Q 50.11 210.73 49.25 213.14
  L 49.25 131.29
  L 49.87 131.69
  Q 50.19 131.90 50.30 131.52
  L 52.23 124.97
  Z"
/>
<rect fill="#79c6bc" x="36.75" y="216.72" width="186.24" height="10.78" rx="0.27"/>
</svg>
